<svg xmlns="http://www.w3.org/2000/svg">
    <symbol id="star" viewBox="0 0 16.000000 15.000000">
        <g transform="translate(0.000000,15.000000) scale(0.100000,-0.100000)">
            <path d="M65 120 c-4 -13 -15 -20 -31 -20 -27 0 -32 -17 -8 -27 12 -4 14 -14
            10 -34 -3 -16 -2 -29 2 -29 17 0 12 59 -5 69 -16 9 -16 10 3 11 12 0 29 11 38
            25 9 14 12 25 7 25 -5 0 -13 -9 -16 -20z"/>
            <path d="M94 108 c1 -7 13 -15 27 -18 21 -5 22 -7 5 -13 -13 -5 -17 -14 -14
            -32 6 -27 -1 -32 -20 -13 -9 9 -15 9 -24 -1 -11 -10 -10 -11 3 -6 10 4 20 2
            24 -4 3 -6 13 -11 20 -11 11 0 13 8 9 29 -4 20 -2 30 10 34 24 10 19 27 -8 27
            -13 0 -27 5 -29 10 -3 6 -4 5 -3 -2z"/>
        </g>
    </symbol>
    <symbol id="inst" viewBox="0 0 25 25">
        <g clip-path="url(#clip0_221_969)">
            <path d="M18.2327 0H6.76726C3.03573 0 0 3.03573 0 6.76726V18.2329C0 21.9642 3.03573 25 6.76726 25H18.2329C21.9642 25 25 21.9642 25 18.2329V6.76726C25 3.03573 21.9642 0 18.2327 0V0ZM23.5343 18.2329C23.5343 21.1561 21.1561 23.5343 18.2327 23.5343H6.76726C3.84387 23.5343 1.4656 21.1561 1.4656 18.2329V6.76726C1.4656 3.84387 3.84387 1.4656 6.76726 1.4656H18.2329C21.1561 1.4656 23.5343 3.84387 23.5343 6.76726V18.2329Z" />
            <path d="M12.5008 5.66406C8.73148 5.66406 5.66504 8.7305 5.66504 12.4998C5.66504 16.2691 8.73148 19.3355 12.5008 19.3355C16.2701 19.3355 19.3365 16.2691 19.3365 12.4998C19.3365 8.7305 16.2701 5.66406 12.5008 5.66406V5.66406ZM12.5008 17.8699C9.53981 17.8699 7.13064 15.461 7.13064 12.4998C7.13064 9.53883 9.53981 7.12967 12.5008 7.12967C15.4619 7.12967 17.8709 9.53883 17.8709 12.4998C17.8709 15.461 15.4619 17.8699 12.5008 17.8699V17.8699Z"/>
            <path d="M19.5011 3.23682C18.3872 3.23682 17.4812 4.143 17.4812 5.2567C17.4812 6.37059 18.3872 7.27677 19.5011 7.27677C20.615 7.27677 21.5211 6.37059 21.5211 5.2567C21.5211 4.14281 20.615 3.23682 19.5011 3.23682ZM19.5011 5.81097C19.1955 5.81097 18.9468 5.56225 18.9468 5.2567C18.9468 4.95095 19.1955 4.70242 19.5011 4.70242C19.8068 4.70242 20.0555 4.95095 20.0555 5.2567C20.0555 5.56225 19.8068 5.81097 19.5011 5.81097Z" />
        </g>
    </symbol>
    <symbol id="vk" viewBox="0 0 25 25">
        <g clip-path="url(#clip0_221_967)">
            <path d="M12.651 20.3125C16.2677 20.3125 14.9781 18.0229 15.2573 17.3646C15.2531 16.8729 15.249 16.4 15.2656 16.1125C15.4948 16.1771 16.0354 16.451 17.1521 17.5365C18.876 19.276 19.3167 20.3125 20.7094 20.3125H23.2729C24.0854 20.3125 24.5083 19.976 24.7198 19.6937C24.924 19.4208 25.124 18.9417 24.9052 18.1958C24.3333 16.4 20.9979 13.299 20.7906 12.9719C20.8219 12.9115 20.8719 12.8312 20.8979 12.7896H20.8958C21.5542 11.9198 24.0667 8.15521 24.4365 6.64896C24.4375 6.64687 24.4385 6.64375 24.4385 6.64062C24.6385 5.95312 24.4552 5.50729 24.2656 5.25521C23.9802 4.87813 23.526 4.6875 22.9125 4.6875H20.349C19.4906 4.6875 18.8396 5.11979 18.5104 5.90833C17.9594 7.30937 16.4115 10.1906 15.251 11.2104C15.2156 9.76562 15.2396 8.6625 15.2583 7.84271C15.2958 6.24375 15.4167 4.6875 13.7573 4.6875H9.72812C8.68854 4.6875 7.69375 5.82292 8.77083 7.17083C9.7125 8.35208 9.10937 9.01042 9.3125 12.2875C8.52083 11.4385 7.1125 9.14583 6.11667 6.21562C5.8375 5.42292 5.41458 4.68854 4.22396 4.68854H1.66042C0.620833 4.68854 0 5.25521 0 6.20417C0 8.33542 4.71771 20.3125 12.651 20.3125ZM4.22396 6.25104C4.45 6.25104 4.47292 6.25104 4.64062 6.72708C5.66042 9.73021 7.94792 14.174 9.61875 14.174C10.874 14.174 10.874 12.8875 10.874 12.4031L10.8729 8.54687C10.8042 7.27083 10.3396 6.63542 10.0344 6.25L13.6885 6.25417C13.6906 6.27188 13.6677 10.5198 13.699 11.549C13.699 13.0104 14.8594 13.8479 16.6708 12.0146C18.5823 9.85729 19.9042 6.63229 19.9573 6.50104C20.0354 6.31354 20.1031 6.25 20.349 6.25H22.9125H22.9229C22.9219 6.25312 22.9219 6.25625 22.9208 6.25937C22.6865 7.35312 20.3729 10.8385 19.599 11.9208C19.5865 11.9375 19.575 11.9552 19.5635 11.9729C19.2229 12.5292 18.9458 13.1437 19.6104 14.0083H19.6115C19.6719 14.0812 19.8292 14.2521 20.0583 14.4896C20.7708 15.225 23.2146 17.7396 23.4312 18.7396C23.2875 18.7625 23.1313 18.7458 20.7094 18.751C20.1938 18.751 19.7906 17.9802 18.2521 16.4281C16.8687 15.0823 15.9708 14.5323 15.1531 14.5323C13.5656 14.5323 13.6812 15.8208 13.6958 17.3792C13.701 19.0687 13.6906 18.5344 13.7021 18.6406C13.6094 18.6771 13.3438 18.75 12.651 18.75C6.04167 18.75 1.7375 8.25938 1.57187 6.25417C1.62917 6.24896 2.41771 6.25208 4.22396 6.25104Z" />
        </g>
    </symbol>
    <symbol id="fbook" viewBox="0 0 25 25">
        <g clip-path="url(#clip0_221_963)">
            <path d="M14.189 24.9512H10.1777C9.50764 24.9512 8.9626 24.4072 8.9626 23.7385V14.7083H6.62229C5.95227 14.7083 5.40723 14.1642 5.40723 13.4956V9.6262C5.40723 8.95748 5.95227 8.41351 6.62229 8.41351H8.9626V6.47583C8.9626 4.55456 9.56708 2.91996 10.7105 1.74904C11.859 0.572777 13.4642 -0.0488281 15.3523 -0.0488281L18.4116 -0.043869C19.0804 -0.0427246 19.6245 0.501251 19.6245 1.16882V4.76151C19.6245 5.43022 19.0797 5.9742 18.4098 5.9742L16.3501 5.97496C15.7219 5.97496 15.5619 6.10066 15.5277 6.13918C15.4714 6.20308 15.4043 6.38371 15.4043 6.88248V8.41332H18.255C18.4697 8.41332 18.6776 8.46615 18.8563 8.56571C19.2417 8.78067 19.4814 9.18713 19.4814 9.62639L19.4799 13.4958C19.4799 14.1642 18.9348 14.7081 18.2648 14.7081H15.4043V23.7385C15.4043 24.4072 14.8591 24.9512 14.189 24.9512ZM10.4311 23.4856H13.9356V14.0522C13.9356 13.6057 14.2997 13.2425 14.7469 13.2425H18.0114L18.0127 9.87911H14.7467C14.2995 9.87911 13.9356 9.51595 13.9356 9.06944V6.88248C13.9356 6.30989 13.9939 5.65872 14.427 5.1693C14.9502 4.57764 15.7748 4.50935 16.3497 4.50935L18.156 4.50859V1.42136L15.3512 1.41678C12.3167 1.41678 10.4311 3.35541 10.4311 6.47583V9.06944C10.4311 9.51576 10.0672 9.87911 9.62001 9.87911H6.8757V13.2425H9.62001C10.0672 13.2425 10.4311 13.6057 10.4311 14.0522V23.4856ZM18.4087 1.42174H18.4089H18.4087Z" />
        </g>
    </symbol>
    <symbol id="twitter" viewBox="0 0 25 25">
        <path d="M0.492522 20.4113C2.80711 21.88 5.50086 22.6561 8.28211 22.6561C12.355 22.6561 16.0873 21.0915 18.7925 18.2509C21.3811 15.5321 22.805 11.879 22.7342 8.1717C23.7154 7.33212 24.8696 5.72899 24.8696 4.16649C24.8696 3.56753 24.2196 3.18733 23.6925 3.49253C22.7707 4.0342 21.93 4.17587 21.0654 3.93316C19.2998 2.21233 16.6717 1.84983 14.4571 3.04358C12.5217 4.08524 11.4456 5.99149 11.5425 8.07483C8.27273 7.67587 5.2519 6.03628 3.14565 3.48837C2.79981 3.07274 2.14356 3.1217 1.86856 3.59253C0.853981 5.33003 0.864397 7.34358 1.74669 8.96962C1.3269 9.04358 1.06752 9.3967 1.06752 9.77899C1.06752 11.4134 1.80294 12.9155 2.98731 13.9405C2.76648 14.153 2.69356 14.4686 2.78731 14.7498C3.30815 16.3144 4.48731 17.5373 5.96127 18.1498C4.35815 18.9155 2.58523 19.1707 1.00711 18.9769C0.190439 18.8665 -0.212686 19.9644 0.492522 20.4113ZM8.49565 18.4175C9.08002 17.9686 8.76961 17.0332 8.03627 17.0175C6.74461 16.9905 5.56856 16.354 4.83627 15.353C5.1894 15.33 5.55502 15.2759 5.90294 15.1821C6.69565 14.9675 6.65815 13.8238 5.85294 13.6623C4.39148 13.3686 3.24461 12.304 2.8144 10.9332C3.20711 11.03 3.60711 11.0842 4.00606 11.0915C4.79669 11.0957 5.09565 10.0821 4.45086 9.65816C2.99773 8.70087 2.37794 7.01024 2.78836 5.42066C5.32586 7.99149 8.76856 9.54045 12.4102 9.71545C12.9321 9.74774 13.3238 9.25712 13.2092 8.76024C12.7144 6.61545 13.9123 5.11233 15.1988 4.41962C16.4717 3.73212 18.5154 3.51753 20.0821 5.16128C20.5477 5.65191 22.1186 5.67066 22.9175 5.4842C22.5592 6.1592 22.0081 6.79983 21.4925 7.16024C21.2727 7.31441 21.1467 7.57066 21.1602 7.83837C21.3279 11.2602 20.0529 14.6623 17.6623 17.1717C15.254 19.6998 11.9238 21.0925 8.28315 21.0925C6.83523 21.0925 5.41544 20.8571 4.07377 20.403C5.67794 20.0925 7.2019 19.4134 8.49565 18.4175Z"/>
    </symbol>

</svg>